<?xml version="1.0" standalone="no"?>
<!DOCTYPE svg PUBLIC "-//W3C//DTD SVG 20010904//EN"
 "http://www.w3.org/TR/2001/REC-SVG-20010904/DTD/svg10.dtd">
<svg version="1.0" xmlns="http://www.w3.org/2000/svg"
 width="791.000000pt" height="791.000000pt" viewBox="0 0 791.000000 791.000000"
 preserveAspectRatio="xMidYMid meet">
<metadata>
Created by potrace 1.11, written by Peter Selinger 2001-2013
</metadata>
<g transform="translate(0.000000,791.000000) scale(0.100000,-0.100000)"
fill="#000000" stroke="none">
<path d="M2921 7891 c-23 -23 -47 -97 -60 -191 -10 -69 -7 -408 4 -575 l7
-101 -38 -59 c-282 -434 -720 -821 -1094 -965 -47 -18 -99 -39 -117 -47 -17
-7 -36 -13 -43 -13 -24 0 -130 -63 -165 -99 -43 -41 -55 -68 -55 -117 0 -56
26 -102 97 -173 143 -142 374 -263 667 -352 127 -39 227 -57 351 -64 240 -13
283 -17 338 -31 4 -1 14 -2 22 -3 21 -2 19 -60 -4 -153 -34 -132 -114 -267
-231 -392 -86 -91 -160 -149 -365 -286 -142 -95 -298 -207 -390 -281 -206
-167 -294 -247 -485 -439 -213 -214 -334 -390 -395 -574 -35 -105 -38 -122
-38 -236 -1 -108 17 -175 68 -255 30 -48 98 -119 143 -151 67 -47 238 -116
318 -130 16 -2 52 -9 79 -14 66 -12 212 -23 305 -23 81 0 276 12 300 18 8 2
42 6 75 10 33 3 76 10 95 15 19 5 51 11 70 14 68 11 333 83 420 115 14 5 66
24 115 42 50 18 95 35 100 39 6 4 33 15 60 25 103 38 474 233 583 306 23 16
47 29 52 29 22 0 30 36 45 205 4 39 10 88 15 110 7 35 14 109 26 280 6 80 5
444 0 510 -11 118 -17 186 -21 203 -2 10 -7 45 -11 77 -4 33 -8 62 -9 65 -1 3
-4 19 -8 35 -4 17 -9 45 -12 62 -8 50 -73 259 -101 325 -94 225 -224 389 -359
453 -95 44 -244 87 -382 109 -136 21 -229 34 -295 41 -145 15 -368 44 -390 51
-9 3 -25 7 -37 9 -142 27 -333 111 -394 172 -48 47 -63 73 -45 74 14 1 66 4
233 13 114 6 655 7 700 2 17 -2 78 -7 137 -11 59 -3 117 -8 130 -10 13 -2 57
-9 99 -15 170 -25 262 -56 454 -152 147 -74 233 -129 306 -196 l57 -52 13 52
c19 79 17 253 -4 306 -31 77 23 40 116 -81 243 -316 389 -678 401 -998 2 -42
6 -82 10 -88 5 -8 19 10 38 46 16 32 38 72 48 88 20 35 87 157 108 198 7 15
14 27 16 27 6 0 7 -555 2 -690 -4 -86 -15 -241 -21 -285 -3 -16 -7 -52 -10
-80 -6 -53 -39 -218 -55 -275 -14 -47 -13 -60 5 -60 47 0 226 303 315 530 62
160 105 289 136 409 19 74 37 137 38 140 2 3 7 26 10 51 4 25 8 52 10 60 15
73 24 129 31 203 3 34 8 80 10 102 5 48 6 359 1 395 -2 14 -7 54 -11 90 -25
238 -123 549 -253 805 -148 293 -322 528 -576 780 -209 208 -441 386 -656 503
-41 23 -88 58 -105 78 -100 124 -307 336 -390 400 -84 64 -123 76 -154 45z
m-86 -1666 c88 -35 67 -118 -34 -140 -124 -27 -255 25 -231 91 22 59 171 86
265 49z"/>
<path d="M5607 3084 c-1 -1 -33 -5 -72 -9 -84 -7 -122 -12 -195 -25 -30 -5
-71 -12 -90 -15 -110 -19 -365 -92 -475 -136 -38 -16 -73 -29 -77 -29 -13 0
-155 -65 -283 -130 -147 -74 -218 -119 -323 -202 -402 -319 -1272 -703 -1797
-794 -16 -2 -37 -7 -45 -9 -8 -2 -55 -9 -105 -16 -562 -71 -941 20 -1216 291
-91 90 -127 136 -186 238 l-45 77 6 -160 c3 -88 8 -169 10 -180 2 -11 7 -42
10 -70 78 -601 333 -1119 706 -1436 204 -173 412 -286 677 -368 212 -66 342
-85 578 -86 419 0 716 81 1495 407 421 176 585 240 795 308 142 45 344 100
430 115 17 2 55 9 85 14 30 6 75 13 100 16 25 3 61 8 80 10 89 12 282 18 455
14 60 -2 189 -35 254 -66 208 -99 293 -303 247 -595 -5 -35 -44 -144 -67 -190
-11 -21 -19 -40 -19 -44 0 -8 126 124 158 166 15 19 33 41 40 49 7 7 32 40 55
73 184 264 290 496 351 770 35 160 41 212 41 393 0 247 -23 391 -100 623 -137
412 -351 687 -657 841 -95 49 -248 104 -319 115 -20 3 -42 8 -50 10 -17 6 -77
15 -144 22 -50 6 -304 12 -308 8z m627 -539 c222 -47 406 -192 521 -409 56
-106 114 -287 141 -441 3 -22 8 -48 10 -58 17 -96 23 -309 11 -439 -8 -102
-42 -265 -73 -361 -25 -76 -38 -95 -41 -58 -1 11 -14 46 -29 78 -140 301 -525
452 -1039 408 -44 -4 -87 -8 -95 -10 -8 -1 -40 -6 -70 -10 -30 -4 -64 -9 -75
-11 -11 -2 -33 -7 -49 -10 l-30 -5 25 19 c13 11 74 50 134 87 61 38 121 75
135 84 97 61 303 162 368 182 23 6 42 16 42 21 0 9 -55 70 -142 159 -64 65
-179 160 -214 176 -19 9 -34 20 -34 25 0 13 213 73 330 93 19 3 91 8 159 10
69 3 126 7 128 8 1 2 -28 64 -65 138 -70 140 -130 235 -191 302 l-36 40 75 -6
c41 -3 88 -8 104 -12z"/>
</g>
</svg>
